<mxfile host="app.diagrams.net" agent="Mozilla/5.0 (Macintosh; Intel Mac OS X 10_15_7) AppleWebKit/537.36 (KHTML, like Gecko) Chrome/140.0.0.0 Safari/537.36" version="28.2.5">
  <diagram name="Múltiplos de 2 y 3" id="1HeP7s19xeIuuMT-bDhr">
    <mxGraphModel dx="1773" dy="586" grid="1" gridSize="10" guides="1" tooltips="1" connect="1" arrows="1" fold="1" page="1" pageScale="1" pageWidth="827" pageHeight="1169" math="0" shadow="0">
      <root>
        <mxCell id="0" />
        <mxCell id="1" parent="0" />
        <mxCell id="9f_oggLnOZA4jUVOf1kA-1" value="Inicio" style="ellipse;whiteSpace=wrap;html=1;aspect=fixed;" vertex="1" parent="1">
          <mxGeometry x="400" y="40" width="80" height="80" as="geometry" />
        </mxCell>
        <mxCell id="9f_oggLnOZA4jUVOf1kA-2" value="&amp;nbsp;n: INT" style="rounded=1;whiteSpace=wrap;html=1;" vertex="1" parent="1">
          <mxGeometry x="250" y="140" width="300" height="60" as="geometry" />
        </mxCell>
        <mxCell id="9f_oggLnOZA4jUVOf1kA-20" value="" style="edgeStyle=orthogonalEdgeStyle;rounded=0;orthogonalLoop=1;jettySize=auto;html=1;" edge="1" parent="1" source="9f_oggLnOZA4jUVOf1kA-3" target="9f_oggLnOZA4jUVOf1kA-5">
          <mxGeometry relative="1" as="geometry" />
        </mxCell>
        <mxCell id="9f_oggLnOZA4jUVOf1kA-3" value="ESCRIBIR: &quot;Introduce un número&quot;&lt;div&gt;LEER: n&lt;/div&gt;" style="shape=parallelogram;perimeter=parallelogramPerimeter;whiteSpace=wrap;html=1;" vertex="1" parent="1">
          <mxGeometry x="250" y="220" width="300" height="60" as="geometry" />
        </mxCell>
        <mxCell id="9f_oggLnOZA4jUVOf1kA-5" value="n % 2 = 0" style="rhombus;whiteSpace=wrap;html=1;" vertex="1" parent="1">
          <mxGeometry x="250" y="310" width="300" height="80" as="geometry" />
        </mxCell>
        <mxCell id="9f_oggLnOZA4jUVOf1kA-21" style="edgeStyle=orthogonalEdgeStyle;rounded=0;orthogonalLoop=1;jettySize=auto;html=1;exitX=1;exitY=0.5;exitDx=0;exitDy=0;entryX=0;entryY=0.5;entryDx=0;entryDy=0;" edge="1" parent="1" source="9f_oggLnOZA4jUVOf1kA-6" target="9f_oggLnOZA4jUVOf1kA-9">
          <mxGeometry relative="1" as="geometry" />
        </mxCell>
        <mxCell id="9f_oggLnOZA4jUVOf1kA-6" value="ESCRIBIR: &quot;El número es múltiplo de 2&quot;" style="rounded=1;whiteSpace=wrap;html=1;" vertex="1" parent="1">
          <mxGeometry x="-160" y="400" width="240" height="60" as="geometry" />
        </mxCell>
        <mxCell id="9f_oggLnOZA4jUVOf1kA-7" value="n % 3 = 0" style="rhombus;whiteSpace=wrap;html=1;" vertex="1" parent="1">
          <mxGeometry x="250" y="500" width="300" height="80" as="geometry" />
        </mxCell>
        <mxCell id="9f_oggLnOZA4jUVOf1kA-8" value="ESCRIBIR: &quot;El número es múltiplo de 3&quot;" style="rounded=1;whiteSpace=wrap;html=1;" vertex="1" parent="1">
          <mxGeometry x="-160" y="500" width="240" height="60" as="geometry" />
        </mxCell>
        <mxCell id="9f_oggLnOZA4jUVOf1kA-9" value="Fin" style="ellipse;whiteSpace=wrap;html=1;aspect=fixed;" vertex="1" parent="1">
          <mxGeometry x="210" y="430" width="80" height="80" as="geometry" />
        </mxCell>
        <mxCell id="9f_oggLnOZA4jUVOf1kA-10" value="" style="endArrow=block;rounded=1;html=1;" edge="1" parent="1" source="9f_oggLnOZA4jUVOf1kA-1" target="9f_oggLnOZA4jUVOf1kA-2">
          <mxGeometry relative="1" as="geometry" />
        </mxCell>
        <mxCell id="9f_oggLnOZA4jUVOf1kA-11" value="" style="endArrow=block;rounded=1;html=1;" edge="1" parent="1" source="9f_oggLnOZA4jUVOf1kA-2" target="9f_oggLnOZA4jUVOf1kA-3">
          <mxGeometry relative="1" as="geometry" />
        </mxCell>
        <mxCell id="9f_oggLnOZA4jUVOf1kA-14" value="Sí" style="endArrow=block;rounded=1;html=1;" edge="1" parent="1" source="9f_oggLnOZA4jUVOf1kA-5" target="9f_oggLnOZA4jUVOf1kA-6">
          <mxGeometry relative="1" as="geometry" />
        </mxCell>
        <mxCell id="9f_oggLnOZA4jUVOf1kA-15" value="No" style="endArrow=block;rounded=1;html=1;" edge="1" parent="1" source="9f_oggLnOZA4jUVOf1kA-5" target="9f_oggLnOZA4jUVOf1kA-7">
          <mxGeometry relative="1" as="geometry" />
        </mxCell>
        <mxCell id="9f_oggLnOZA4jUVOf1kA-17" value="Sí" style="endArrow=block;rounded=1;html=1;" edge="1" parent="1" source="9f_oggLnOZA4jUVOf1kA-7" target="9f_oggLnOZA4jUVOf1kA-8">
          <mxGeometry relative="1" as="geometry" />
        </mxCell>
        <mxCell id="9f_oggLnOZA4jUVOf1kA-18" value="No" style="endArrow=block;rounded=1;html=1;" edge="1" parent="1" source="9f_oggLnOZA4jUVOf1kA-7" target="9f_oggLnOZA4jUVOf1kA-9">
          <mxGeometry relative="1" as="geometry" />
        </mxCell>
        <mxCell id="9f_oggLnOZA4jUVOf1kA-19" value="" style="endArrow=block;rounded=1;html=1;" edge="1" parent="1" source="9f_oggLnOZA4jUVOf1kA-8" target="9f_oggLnOZA4jUVOf1kA-9">
          <mxGeometry relative="1" as="geometry" />
        </mxCell>
      </root>
    </mxGraphModel>
  </diagram>
</mxfile>
